<svg width="21" height="21" viewBox="0 0 21 21" fill="none" xmlns="http://www.w3.org/2000/svg">
<path d="M10.1655 5.44103C10.4139 5.40296 10.6647 5.35571 10.916 5.35607C13.1674 5.35607 15.2842 6.97735 16.5161 9.60397C16.3277 10.0037 16.1149 10.3915 15.8789 10.7651C15.804 10.881 15.7646 11.0164 15.7657 11.1545C15.7672 11.309 15.8193 11.4587 15.914 11.5809C16.0086 11.703 16.1406 11.7908 16.2898 11.8309C16.439 11.871 16.5973 11.8612 16.7404 11.803C16.8835 11.7448 17.0037 11.6413 17.0825 11.5084C17.4124 10.9902 17.6989 10.4455 17.9392 9.88008C17.9772 9.79174 17.9967 9.69659 17.9967 9.60043C17.9967 9.50427 17.9772 9.40912 17.9392 9.32078C16.509 6.00033 13.8187 3.9401 10.916 3.9401C10.5837 3.93843 10.252 3.96686 9.9248 4.02506C9.83183 4.04087 9.74288 4.07483 9.66303 4.12501C9.58318 4.17519 9.514 4.24061 9.45944 4.31753C9.40487 4.39445 9.36599 4.48136 9.34501 4.57331C9.32403 4.66525 9.32137 4.76043 9.33718 4.8534C9.35298 4.94638 9.38695 5.03533 9.43713 5.11517C9.48731 5.19502 9.55273 5.2642 9.62965 5.31877C9.70657 5.37334 9.79348 5.41222 9.88542 5.43319C9.97737 5.45417 10.0725 5.45683 10.1655 5.44103ZM5.0468 2.72945C4.98079 2.66344 4.90242 2.61108 4.81617 2.57535C4.72993 2.53963 4.63749 2.52124 4.54413 2.52124C4.45078 2.52124 4.35834 2.53963 4.27209 2.57535C4.18584 2.61108 4.10748 2.66344 4.04146 2.72945C3.90815 2.86277 3.83325 3.04358 3.83325 3.23212C3.83325 3.42066 3.90815 3.60147 4.04146 3.73479L6.23621 5.92246C5.23482 6.8864 4.43783 8.04215 3.89279 9.32078C3.8538 9.4101 3.83368 9.50651 3.83368 9.60397C3.83368 9.70143 3.8538 9.79784 3.89279 9.88716C5.32291 13.2076 8.01325 15.2678 10.916 15.2678C12.1883 15.259 13.4306 14.8802 14.4913 14.1775L16.7852 16.4785C16.851 16.5448 16.9293 16.5975 17.0156 16.6335C17.1018 16.6694 17.1944 16.6879 17.2878 16.6879C17.3813 16.6879 17.4738 16.6694 17.5601 16.6335C17.6464 16.5975 17.7247 16.5448 17.7905 16.4785C17.8569 16.4127 17.9095 16.3344 17.9455 16.2481C17.9814 16.1618 17.9999 16.0693 17.9999 15.9758C17.9999 15.8824 17.9814 15.7898 17.9455 15.7035C17.9095 15.6173 17.8569 15.539 17.7905 15.4732L5.0468 2.72945ZM9.54957 9.23582L11.2841 10.9704C11.1645 11.0047 11.0405 11.0214 10.916 11.0199C10.5404 11.0199 10.1803 10.8708 9.91474 10.6052C9.6492 10.3397 9.50001 9.97951 9.50001 9.60397C9.49857 9.4795 9.51526 9.35548 9.54957 9.23582ZM10.916 13.8519C8.66459 13.8519 6.54772 12.2306 5.32291 9.60397C5.78033 8.59421 6.42954 7.68291 7.23447 6.92071L8.4876 8.188C8.19325 8.72522 8.08103 9.34339 8.16777 9.94979C8.25451 10.5562 8.53554 11.1181 8.96869 11.5513C9.40184 11.9844 9.96377 12.2654 10.5702 12.3522C11.1766 12.4389 11.7947 12.3267 12.3319 12.0324L13.4576 13.1439C12.6867 13.5976 11.8105 13.8417 10.916 13.8519Z" fill="#B1B5C4"/>
</svg>
