<svg width="24" height="25" viewBox="0 0 24 25" fill="none" xmlns="http://www.w3.org/2000/svg">
<path d="M19.9332 11.675C18.3178 7.86438 15.2789 5.5 12 5.5C8.72114 5.5 5.6822 7.86438 4.06676 11.675C4.02273 11.7775 4 11.8882 4 12C4 12.1118 4.02273 12.2225 4.06676 12.325C5.6822 16.1356 8.72114 18.5 12 18.5C15.2789 18.5 18.3178 16.1356 19.9332 12.325C19.9773 12.2225 20 12.1118 20 12C20 11.8882 19.9773 11.7775 19.9332 11.675ZM12 16.875C9.46488 16.875 7.06572 15.0144 5.6822 12C7.06572 8.98563 9.46488 7.125 12 7.125C14.5351 7.125 16.9343 8.98563 18.3178 12C16.9343 15.0144 14.5351 16.875 12 16.875ZM12 8.75C11.3673 8.75 10.7488 8.94061 10.2228 9.29772C9.69674 9.65484 9.28673 10.1624 9.04461 10.7563C8.8025 11.3501 8.73915 12.0036 8.86258 12.634C8.98601 13.2645 9.29067 13.8436 9.73805 14.2981C10.1854 14.7526 10.7554 15.0622 11.3759 15.1876C11.9965 15.313 12.6396 15.2486 13.2242 15.0026C13.8087 14.7566 14.3083 14.3401 14.6598 13.8056C15.0113 13.2711 15.1989 12.6428 15.1989 12C15.1989 11.138 14.8619 10.3114 14.262 9.7019C13.662 9.09241 12.8484 8.75 12 8.75ZM12 13.625C11.6837 13.625 11.3744 13.5297 11.1114 13.3511C10.8484 13.1726 10.6434 12.9188 10.5223 12.6219C10.4012 12.3249 10.3696 11.9982 10.4313 11.683C10.493 11.3678 10.6453 11.0782 10.869 10.851C11.0927 10.6237 11.3777 10.4689 11.688 10.4062C11.9982 10.3435 12.3198 10.3757 12.6121 10.4987C12.9043 10.6217 13.1541 10.83 13.3299 11.0972C13.5056 11.3644 13.5994 11.6786 13.5994 12C13.5994 12.431 13.4309 12.8443 13.131 13.149C12.831 13.4538 12.4242 13.625 12 13.625Z" fill="#777E91"/>
</svg>
