<svg width="41" height="41" viewBox="0 0 41 41" fill="none" xmlns="http://www.w3.org/2000/svg">
<rect width="40.2376" height="40.1692" rx="12" fill="#3B71FE"/>
<path d="M12.5128 22.3138L17.4284 22.1693L19.021 18.7185C19.1915 18.3492 18.8738 17.9456 18.4768 18.0342C17.1586 18.3282 15.3033 18.8151 14.2617 19.3359C13.2616 19.836 12.5115 20.8675 12.0818 21.6566C11.911 21.9703 12.1558 22.3243 12.5128 22.3138Z" fill="white"/>
<path d="M28.619 31.628L24.4042 24.2522C24.0338 23.604 23.1092 23.5743 22.6953 24.1956C21.4016 26.1376 19.6037 28.7833 18.7615 29.8359C17.6949 31.1693 16.5393 31.3915 16.0949 31.3359C14.8727 31.2804 12.0949 31.0693 10.7616 30.6693C9.42823 30.2693 10.1217 29.4507 10.7616 29.1693C11.5254 28.8333 13.4282 28.2359 14.7616 27.8359C16.0949 27.436 17.0949 25.8915 17.4282 25.1693L22.4282 15.6692C23.706 13.0581 26.7282 7.86919 28.5949 8.00252C30.4616 8.13585 29.9282 10.1692 29.4282 11.1692L26.7571 16.9828C26.6528 17.2099 26.6367 17.466 26.713 17.704C27.6984 20.7776 29.5828 26.6717 30.0949 28.3359C30.5188 29.7134 29.918 30.9716 29.3468 31.709C29.1509 31.9619 28.7777 31.9057 28.619 31.628Z" fill="white"/>
</svg>
